<svg xmlns="http://www.w3.org/2000/svg" width="21" height="14" viewBox="0 0 21 14">
  <g fill="none" fill-rule="evenodd">
    <path fill="#B1ABEA" d="M9.83581102 12.6669919L9.17617461 12.575346 8.72393481 12.5142486 8.52517973 12.4587056C8.44164499 11.2589764 8.0297323 10.6896605 7.66102723 10.3480709 7.41450505 10.1954233 7.15755303 10.0590314 6.8919315 9.93982973 6.86483118 10.3662597 6.89875563 10.7942567 6.99274929 11.2117648 7.14648665 11.7114102 7.52359305 12.1187773 8.02109077 12.3226252 7.40757794 12.1676171 6.81206982 11.9526634 6.24381712 11.6811034 6.3510758 11.2256013 6.37157243 10.7550969 6.3043078 10.2925279 6.27962291 9.99643362 6.18077747 9.71053752 6.01625696 9.45938262 5.83682685 9.25638008 5.64441824 9.06438275 5.4401553 8.88451237 5.27219204 9.27087672 5.16351161 9.67877337 5.11753836 10.0953502 5.10077666 10.3299459 5.14534544 10.5648463 5.24716124 10.7785293 5.35810606 11.0474351 5.53977977 11.2838464 5.77429426 11.4644856 5.77429426 11.4644856 5.36526208 11.214542 4.97927396 10.9423812 4.79629922 10.8222605 4.62643936 10.684549 4.47230449 10.5313629L4.25626637 10.3258537C4.83236804 9.30108501 5.01672057 8.59568868 4.67105957 7.68756033 4.63183593 7.62057579 4.58230434 7.55971245 4.52415364 7.50704551 4.06615282 7.99026978 3.22504438 8.84563226 3.89044181 9.96760123L3.31434014 9.23998769C3.1997718 9.06164772 3.09776401 8.87608625 3.00900626 8.68455751L2.89378592 8.44016823C3.79538503 7.67367457 4.16120959 7.13490729 4.24186383 6.66001448 4.29538452 6.37823497 4.28059678 6.08833997 4.1986562 5.81298345 3.56494437 6.18789883 2.50203679 6.72388895 2.68926983 7.98471547 2.68926983 7.98471547 2.64894271 7.87918374 2.59997407 7.70700038 2.55100543 7.53481702 2.49627577 7.32375355 2.44730713 7.09880433 2.38859016 6.8020722 2.34532832 6.50269042 2.31768426 6.20178458 3.46988759 5.77410334 3.93652994 5.24922181 4.16697061 4.81320912 4.29705476 4.55374787 4.36123342 4.26816713 4.35420365 3.98006384 3.63695708 4.16613295 2.48475374 4.42440799 2.28887917 5.69356596 2.28887917 5.69356596 2.27447663 5.23811321 2.31192324 4.77988331 2.33342556 4.47618216 2.37285639 4.17390868 2.43002408 3.87453211 3.67152318 3.75511462 4.25338586 3.37742209 4.59040534 3.07193549 4.74127846 2.87840232 4.87520318 2.67311196 4.990796 2.45818513 4.57179861 2.36556987 4.13763608 2.35612102 3.7147308 2.43041362 3.18426946 2.54083155 2.745113 2.89765167 2.54236391 3.38297639 2.55939118 3.31881762 2.58055607 3.25574621 2.60573509 3.19413013L2.72671644 2.7942204C2.83905627 2.4942881 2.96291812 2.2110187 2.96291812 2.2110187 3.29980239 2.09890532 3.60263347 1.90807852 3.84435368 1.65558852 4.13240451 1.35565622 4.28795196.914089219 4.56160025.0309552254 4.56160025.0309552254 4.56160025.0309552254 4.56160025.0309552254L4.56160025.0170694707C3.78769847-.086789698 3.02977538.290252373 2.66910627.958523634 2.48784468 1.31189046 2.46493636 1.72149151 2.60573509 2.09160121 2.60573509 2.09160121 2.46747069 2.39708781 2.36089188 2.71090587 2.30904273 2.86920347 2.25719358 3.03027822 2.21686646 3.15247286 2.17653935 3.27466751 2.16789782 3.35520488 2.16789782 3.35520488 2.2295906 2.78239019 2.16178247 2.20348926 1.96914275 1.65836567 1.82511733 1.16125565 1.59467666.700248598 1.49673938.25590445 1.39269177.370088595 1.29647103.490687227 1.20868854.61693407 1.02733623.911750688.901534288 1.23518524.837102969 1.57227399.63995288 2.51033732 1.15895578 3.45175033 2.07572156 3.81898909 2.01372651 4.13946975 1.97045073 4.46305458 1.94609868 4.78821476 1.90865207 5.27699332 1.92881563 5.76577189 1.92881563 5.76577189 1.70413598 4.4632881.828461444 3.82176624.278284351 3.11359275.106657301 3.54205175.0511401489 4.00561739.116975883 4.46051095.239105402 5.38641364.992280934 6.1171238 1.9518597 6.24066469 1.9518597 6.24066469 1.99506732 6.73222041 2.09300461 7.20989037 2.16340675 7.53143804 2.25382628 7.84860713 2.36377239 8.15967598 1.76462665 6.95994678.762209752 6.5517056.0132775832 6.01571547-.0325657134 6.46935338.0407378353 6.92681972.2264352 7.34597076.584916532 8.24941889 1.56721759 8.77164843 2.55100543 8.58180292L2.69791136 8.85951802C2.79548942 9.06900428 2.91212588 9.26974389 3.04645287 9.45938262L3.65424013 10.2480935C2.65758424 9.35107373 1.57739361 9.29830786.638347893 8.97893551.681846456 9.11768317.735758272 9.2531956.79965636 9.38439954.948369525 9.69711004 1.14233511 9.98790402 1.37575803 10.2480935 1.96914275 10.7813065 2.89378592 11.1895476 4.00854265 10.570243L4.23898332 10.7896379C4.40258991 10.9572489 4.58631546 11.1054814 4.7862799 11.2312049 4.99655701 11.3756168 5.21259514 11.50892 5.36238157 11.6283375 5.44850309 11.6872997 5.54011158 11.7384331 5.63602986 11.7810808 5.34834337 11.6689392 5.04896367 11.5870034 4.74307228 11.5366915 4.46572374 11.5073913 4.18642417 11.4990344 3.90772486 11.5116971 3.38059183 11.5116971 2.87074186 11.620006 2.39833849 11.6338918 2.48714216 11.7462026 2.58335836 11.852881 2.68638932 11.9532641 2.9169066 12.2011764 3.19715885 12.4014618 3.51021471 12.5420201 3.89679589 12.7119407 4.32320236 12.7799793 4.74595279 12.7391979 5.26381669 12.643629 5.73400883 12.3847281 6.08250866 12.0032529 6.05946459 12.0587959 7.59765604 12.6170032 7.91739247 12.6836548 7.62987266 12.6598068 7.34075978 12.6598068 7.05323997 12.6836548 6.77831097 12.7219235 6.50934384 12.7928156 6.25245865 12.8947183 5.75989172 13.0669017 5.32205445 13.2974052 4.8899782 13.4501485 5.00372532 13.5304677 5.12200802 13.6046391 5.24428073 13.6723206 5.52935613 13.8359005 5.84770437 13.938209 6.17756543 13.9722529 6.93225862 14.0944475 7.87706535 13.8333953 8.46180855 12.7808551 8.46180855 12.7808551 8.54534329 12.8002952 8.67208565 12.833621 8.79882802 12.8669468 8.96013649 12.8725011 9.13872801 12.8947183L9.81852797 12.9863643C9.91763799 12.9863763 9.99842683 12.9097227 10 12.8141809 9.98800894 12.7339834 9.91964453 12.6726973 9.83581102 12.6669919zM11.1547228 12.6669771L11.8157729 12.5753301 12.2718686 12.5142321 12.4739364 12.4586884C12.5576501 11.2589458 12.9704456 10.6896236 13.3399409 10.3480302 13.5847285 10.1965916 13.8403584 10.0620244 14.1049116 9.94533881 14.1329809 10.3716459 14.0999555 10.7996414 14.0067644 11.2172881 13.8535993 11.7156163 13.4781082 12.1226559 12.9819924 12.3281609 13.5940248 12.1706854 14.1878727 11.953881 14.754415 11.6810775 14.6475536 11.2253941 14.6289604 10.7546579 14.699568 10.2924865 14.7219584 9.99593339 14.821201 9.7094991 14.9882362 9.45933198 15.1623887 9.26287182 15.3494438 9.07734647 15.5482525 8.9038956 15.715352 9.29048465 15.8232829 9.69834786 15.8686742 10.1147469 15.8843768 10.3492849 15.8397612 10.5839317 15.7387735 10.7979337 15.6311097 11.0603674 15.4551721 11.2917903 15.2278308 11.4700117 15.5035891 11.309419 15.770486 11.1351472 16.0274417 10.9479015 16.2108689 10.8278561 16.3811006 10.6901368 16.5354977 10.5368786L16.7491121 10.3313671C16.1717758 9.30658697 15.9870281 8.60118277 16.33343 7.69304429 16.3711619 7.62811221 16.4177631 7.56833429 16.4719907 7.51530465 16.9309731 7.9985343 17.7738842 8.85390632 17.1070607 9.97588781L17.6843971 9.24826615C17.8001949 9.070469 17.9024584 8.88483814 17.9903853 8.69282977L18.1260594 8.43732904C17.2254146 7.67082684 16.8559194 7.13205355 16.7722056 6.65715544 16.7205041 6.37525286 16.735302 6.08577648 16.8155058 5.81011497 17.4505758 6.18503452 18.5186481 6.72103063 18.3339005 7.98187121 18.3339005 7.98187121 18.3685406 7.8763383 18.4205009 7.70415302 18.4724612 7.53196774 18.5273081 7.32090192 18.5792684 7.09595018 18.6687556 6.6488239 18.7062824 6.19058889 18.7062824 6.19058889 17.5516097 5.76290287 17.0839672 5.2380155 16.8559194 4.80199794 16.7243953 4.54272593 16.6581401 4.25731416 16.6625117 3.96884337 17.3841821 4.15491456 18.5388549 4.41319247 18.7380359 5.6823646 18.7380359 5.6823646 18.7380359 5.22690677 18.7120558 4.76867176 18.6896708 4.46504578 18.6501613 4.16281356 18.5937018 3.86331046 17.3379952 3.76055473 16.7577722 3.38285799 16.4142571 3.07181362 16.2656028 2.87771933 16.1333544 2.67247672 16.0187816 2.45805642 16.438677 2.36544013 16.87377 2.35599117 17.2975817 2.4302846 17.827926 2.54054951 18.2663213 2.89774863 18.4666878 3.38285799 18.454955 3.31614495 18.4385599 3.2502689 18.4176142 3.18567807 18.3800874 3.0745908 18.3310138 2.92462298 18.2819402 2.77743234 18.1664729 2.47749669 18.0452323 2.19422414 18.0452323 2.19422414 17.7070327 2.08327715 17.4032724 1.89227205 17.1619076 1.63878776 16.8732395 1.33885211 16.7173586.897280192 16.4402372.0141363493L16.4402372.0169135312C17.2118253-.0859385756 17.9677412.287119887 18.3310138.950046648 18.5079542 1.30534442 18.5256923 1.71490949 18.3800874 2.08313686 18.3800874 2.08313686 18.5215348 2.38862687 18.628342 2.70244842 18.6803023 2.86074779 18.7322626 3.02182434 18.7726761 3.14402035 18.8130896 3.26621635 18.8217497 3.34675462 18.8217497 3.34675462 18.7602918 2.77393519 18.8282363 2.19510332 19.0209307 1.64989649 19.1796982 1.15278093 19.4106328.691768732 19.5058933.244642447 19.6100456.358921424 19.7064665.479513853 19.7945615.605676093 19.9780884.903664249 20.1042356 1.23105974 20.1669434 1.57213539 20.3653143 2.50876028 19.8478983 3.44967448 18.9314436 3.81887555 18.9912238 4.13961668 19.0336191 4.46313273 19.0584576 4.78811203 19.0959845 5.27689604 19.0757777 5.76568006 19.0757777 5.76568006 19.2980522 4.46318175 20.1756035 3.82165273 20.7298464 3.11347135 20.9014746 3.54200574 20.9590285 4.00501917 20.8972739 4.46040456 20.773034 5.38853962 20.0143324 6.11960204 19.0497976 6.24057816 19.0229836 6.56579606 18.9776912 6.88935863 18.9141235 7.20981464 18.8437538 7.53113015 18.7541168 7.84825894 18.6456621 8.15961085 19.2403186 6.95709109 20.2448838 6.5571769 20.9867611 6.02395797 21.0328023 6.47786375 20.9583083 6.93558484 20.7702599 7.3542281 20.4055623 8.25522591 19.4200537 8.7732376 18.4349343 8.5817425L18.2934869 8.85946069C18.2004125 9.06902739 18.0873484 9.26984341 17.9557451 9.45933198 17.667077 9.85369181 17.349542 10.2480516 17.349542 10.2480516 18.3512206 9.35102188 19.4308396 9.29825543 20.3718978 8.97887951 20.3299431 9.1177789 20.2768617 9.25334103 20.2131303 9.38434807 20.063161 9.69656767 19.8688607 9.98724379 19.635794 10.2480516 19.0382508 10.7812706 18.120286 11.1895163 16.9915934 10.5702047L16.7577722 10.7896021C16.5938527 10.9572535 16.4097284 11.1054917 16.2093026 11.231174L15.6319663 11.628311C15.5466875 11.6872875 15.4558391 11.7384271 15.3606182 11.781056 15.6497148 11.6683475 15.9507573 11.5863962 16.2583762 11.536664 16.5363175 11.5073408 16.8162175 11.4989838 17.095514 11.5116694 17.6208901 11.5116694 18.1318327 11.6199795 18.6052486 11.6338654 18.5160968 11.7460538 18.4196829 11.8527239 18.3165804 11.9532413 18.085515 12.2010992 17.8046751 12.4013776 17.4909894 12.5420039 17.1045294 12.7116946 16.6782012 12.7797346 16.2554895 12.7391838 15.7356308 12.6437899 15.2634571 12.3849089 14.9131825 12.0032306 14.9391626 12.0587742 13.3947879 12.6169878 13.0743662 12.6836402 13.3682531 12.6590522 13.6638039 12.6590522 13.9576908 12.6836402 14.2323864 12.7213962 14.5010404 12.7923103 14.7573017 12.894706 15.253811 13.0668913 15.6954733 13.2973974 16.1255889 13.4501424 16.0121701 13.5312565 15.8935842 13.6054598 15.770527 13.6723169 15.4857073 13.8355219 15.1677026 13.9378182 14.8381288 13.9722526 14.0818181 14.0944486 13.1320998 13.8333935 12.5461034 12.7808415L12.341149 12.833608C12.2112483 12.833608 12.0524808 12.8724885 11.8706199 12.894706L11.1893629 12.986353C11.1254216 12.9898257 11.0644117 12.9602162 11.029315 12.9086782 10.9942183 12.8571403 10.9903669 12.7915036 11.0192116 12.736493 11.0480563 12.6814823 11.1052148 12.6454551 11.1691562 12.6419824L11.1547228 12.6669771z"/>
    <path fill="#2D2298" d="M8.06960046 2.59420153C9.61160709 3.03767336 9.96232664 3.38839291 10.4057985 4.93039954 10.4185109 4.97176671 10.4567236 5 10.5 5 10.5432764 5 10.5814891 4.97176671 10.5942015 4.93039954 11.0376734 3.38839291 11.3883929 3.03767336 12.9303995 2.59420153 12.9717667 2.58148909 13 2.54327642 13 2.5 13 2.45672358 12.9717667 2.41851091 12.9303995 2.40579847 11.3883929 1.96232664 11.0376734 1.61160709 10.5942015.0696004626 10.5814891.0282332945 10.5432764 0 10.5 0 10.4567236 0 10.4185109.0282332945 10.4057985.0696004626 9.95363111 1.61160709 9.60291156 1.96232664 8.06960046 2.40579847 8.02823329 2.41851091 8 2.45672358 8 2.5 8 2.54327642 8.02823329 2.58148909 8.06960046 2.59420153zM6.92271336 6.94289704C6.93314314 6.97683629 6.96449432 7 7 7 7.03550568 7 7.06685686 6.97683629 7.07728664 6.94289704 7.24375018 6.36503076 7.36503076 6.24375018 7.94289704 6.07728664 7.97683629 6.06685686 8 6.03550568 8 6 8 5.96449432 7.97683629 5.93314314 7.94289704 5.92271336 7.36503076 5.75624982 7.24375018 5.63496924 7.07728664 5.05710296 7.06685686 5.02316371 7.03550568 5 7 5 6.96449432 5 6.93314314 5.02316371 6.92271336 5.05710296 6.75624982 5.63496924 6.63496924 5.75624982 6.05710296 5.92271336 6.02316371 5.93314314 6 5.96449432 6 6 6 6.03550568 6.02316371 6.06685686 6.05710296 6.07728664 6.63496924 6.25326238 6.75624982 6.36503076 6.92271336 6.94289704zM14.9244117 6.39769419C14.0398599 6.14271662 13.8541355 5.95699222 13.6023058 5.07558828 13.5884997 5.03066224 13.5469995 5 13.5 5 13.4530005 5 13.4115003 5.03066224 13.3976942 5.07558828 13.1427166 5.96014009 12.9569922 6.14586449 12.0755883 6.39769419 12.0306622 6.41150029 12 6.45300045 12 6.5 12 6.54699955 12.0306622 6.58849971 12.0755883 6.60230581 12.9601401 6.85728338 13.1458645 7.04300778 13.3976942 7.92441172 13.4115003 7.96933776 13.4530005 8 13.5 8 13.5469995 8 13.5884997 7.96933776 13.6023058 7.92441172 13.8572834 7.03985991 14.0430078 6.85413551 14.9244117 6.60230581 14.9693378 6.58849971 15 6.54699955 15 6.5 15 6.45300045 14.9693378 6.41150029 14.9244117 6.39769419z"/>
  </g>
</svg>
